<?xml version="1.0" encoding="UTF-8" standalone="no"?>
<!DOCTYPE svg PUBLIC "-//W3C//DTD SVG 1.1//EN" "http://www.w3.org/Graphics/SVG/1.1/DTD/svg11.dtd">
<svg width="100%" height="100%" viewBox="0 0 751 301" version="1.1" xmlns="http://www.w3.org/2000/svg" xmlns:xlink="http://www.w3.org/1999/xlink" xml:space="preserve" xmlns:serif="http://www.serif.com/" style="fill-rule:evenodd;clip-rule:evenodd;stroke-linecap:round;">
    <g transform="matrix(1,0,0,1,-66,-50)">
        <path d="M94.69,186.83C101.057,126.268 150.462,78.558 211.21,74.31" style="fill:none;fill-rule:nonzero;stroke:url(#_Linear1);stroke-width:30px;"/>
        <path d="M248.34,77.23C292.911,87.518 328.511,121.3 341.12,165.27" style="fill:none;fill-rule:nonzero;stroke:url(#_Linear2);stroke-width:30px;"/>
        <path d="M342.26,230.48C329.089,283.306 283.101,321.893 228.79,325.69" style="fill:none;fill-rule:nonzero;stroke:url(#_Linear3);stroke-width:30px;"/>
        <path d="M176.91,318.4C151.203,309.043 129.229,291.564 114.33,268.62" style="fill:none;fill-rule:nonzero;stroke:url(#_Linear4);stroke-width:30px;"/>
        <path d="M138,200L186,200L209,145L240,252L265,200L313,200" style="fill:none;fill-rule:nonzero;stroke:url(#_Linear5);stroke-width:18px;stroke-linejoin:round;"/>
        <g>
            <g transform="matrix(1,0,0,1,415,128)">
                <text x="0px" y="0px" style="font-family:'Inter-Regular', 'Inter';font-size:66px;fill:rgb(245,247,251);">M<tspan x="58.621px " y="0px ">y</tspan></text>
            </g>
            <g transform="matrix(1,0,0,1,415,213)">
                <text x="0px" y="0px" style="font-family:'Inter-Regular', 'Inter';font-size:66px;fill:rgb(245,247,251);">P<tspan x="40.478px 77.636px 102.194px 123.368px 161.623px 186.181px 242.675px 278.416px 316.09px 352.475px " y="0px 0px 0px 0px 0px 0px 0px 0px 0px 0px ">erformance</tspan></text>
            </g>
            <g transform="matrix(1,0,0,1,415,300)">
                <text x="0px" y="0px" style="font-family:'Inter-Regular', 'Inter';font-size:70px;fill:url(#_Linear6);">T<tspan x="39.821px 64.773px 102.68px 141.27px 176.716px 216.126px " y="0px 0px 0px 0px 0px 0px ">racker</tspan></text>
            </g>
        </g>
    </g>
    <defs>
        <linearGradient id="_Linear1" x1="0" y1="0" x2="1" y2="0" gradientUnits="userSpaceOnUse" gradientTransform="matrix(230,260,-260,230,80,70)"><stop offset="0" style="stop-color:rgb(123,109,255);stop-opacity:1"/><stop offset="1" style="stop-color:rgb(78,91,255);stop-opacity:1"/></linearGradient>
        <linearGradient id="_Linear2" x1="0" y1="0" x2="1" y2="0" gradientUnits="userSpaceOnUse" gradientTransform="matrix(120,90,-90,120,235,65)"><stop offset="0" style="stop-color:rgb(31,239,154);stop-opacity:1"/><stop offset="1" style="stop-color:rgb(20,200,120);stop-opacity:1"/></linearGradient>
        <linearGradient id="_Linear3" x1="0" y1="0" x2="1" y2="0" gradientUnits="userSpaceOnUse" gradientTransform="matrix(110,270,-270,110,220,60)"><stop offset="0" style="stop-color:rgb(129,112,255);stop-opacity:1"/><stop offset="1" style="stop-color:rgb(75,84,246);stop-opacity:1"/></linearGradient>
        <linearGradient id="_Linear4" x1="0" y1="0" x2="1" y2="0" gradientUnits="userSpaceOnUse" gradientTransform="matrix(75,70,-70,75,130,280)"><stop offset="0" style="stop-color:rgb(255,212,93);stop-opacity:1"/><stop offset="1" style="stop-color:rgb(255,178,31);stop-opacity:1"/></linearGradient>
        <linearGradient id="_Linear5" x1="0" y1="0" x2="1" y2="0" gradientUnits="userSpaceOnUse" gradientTransform="matrix(110,270,-270,110,220,60)"><stop offset="0" style="stop-color:rgb(129,112,255);stop-opacity:1"/><stop offset="1" style="stop-color:rgb(75,84,246);stop-opacity:1"/></linearGradient>
        <linearGradient id="_Linear6" x1="0" y1="0" x2="1" y2="0" gradientUnits="userSpaceOnUse" gradientTransform="matrix(241.078906,50.927734,-50.927734,241.078906,0,-50.927734)"><stop offset="0" style="stop-color:rgb(35,240,155);stop-opacity:1"/><stop offset="1" style="stop-color:rgb(18,200,121);stop-opacity:1"/></linearGradient>
    </defs>
</svg>
